<svg width="17" height="17" viewBox="0 0 17 17" fill="none" xmlns="http://www.w3.org/2000/svg">
<rect x="0.341797" width="16.0591" height="16.202" rx="8" fill="white"/>
<path fill-rule="evenodd" clip-rule="evenodd" d="M4.42893 4.08792C4.31177 4.20507 4.31177 4.39502 4.42893 4.51218L8.01784 8.10108L4.42893 11.69C4.31177 11.8071 4.31177 11.9971 4.42893 12.1142C4.54609 12.2314 4.73604 12.2314 4.85319 12.1142L8.4421 8.52534L11.888 11.9713C12.0052 12.0884 12.1952 12.0884 12.3123 11.9713C12.4295 11.8541 12.4295 11.6642 12.3123 11.547L8.86637 8.10108L12.3123 4.65515C12.4295 4.53799 12.4295 4.34804 12.3123 4.23089C12.1952 4.11373 12.0052 4.11373 11.888 4.23089L8.4421 7.67681L4.85319 4.08792C4.73604 3.97076 4.54609 3.97076 4.42893 4.08792Z" fill="#525366"/>
</svg>
