<svg width="32" height="32" viewBox="0 0 32 32" fill="none" xmlns="http://www.w3.org/2000/svg">
<path d="M14.6669 7.99996V14.12H11.6136C11.0136 14.12 10.7203 14.84 11.1469 15.2533L15.5336 19.64C15.8003 19.9066 16.2136 19.9066 16.4803 19.64L20.8669 15.2533C21.2803 14.84 20.9869 14.12 20.4003 14.12H17.3336V7.99996C17.3336 7.26663 16.7336 6.66663 16.0003 6.66663C15.2669 6.66663 14.6669 7.26663 14.6669 7.99996ZM9.46693 18.6666C8.6536 18.6666 7.98693 19.4 8.14693 20.2C8.86693 23.88 12.1069 26.6666 16.0003 26.6666C19.8936 26.6666 23.1336 23.88 23.8536 20.2C24.0136 19.4 23.3469 18.6666 22.5336 18.6666C21.8803 18.6666 21.3603 19.1333 21.2269 19.7733C20.7069 22.1866 18.5736 24 16.0003 24C13.4269 24 11.2936 22.1866 10.7869 19.7733C10.6536 19.1333 10.1203 18.6666 9.46693 18.6666Z" fill="#A5A5B2"/>
</svg>
